<?xml version="1.0" encoding="UTF-8"?><!DOCTYPE svg PUBLIC "-//W3C//DTD SVG 1.1//EN" "http://www.w3.org/Graphics/SVG/1.1/DTD/svg11.dtd"><svg xmlns="http://www.w3.org/2000/svg"><symbol id="envelope" viewBox="0 0 511.626 511.626"><path d="M49.106 178.73c6.472 4.566 25.98 18.13 58.528 40.684s57.482 39.92 74.803 52.1c1.903 1.334 5.946 4.236 12.13 8.71 6.187 4.475 11.327 8.092 15.417 10.85 4.093 2.76 9.04 5.853 14.85 9.278 5.805 3.422 11.278 5.996 16.417 7.7 5.14 1.718 9.9 2.57 14.276 2.57h.575c4.378 0 9.138-.853 14.278-2.57 5.137-1.704 10.615-4.28 16.416-7.7 5.804-3.43 10.752-6.52 14.845-9.277 4.092-2.76 9.228-6.376 15.416-10.852 6.184-4.477 10.232-7.375 12.135-8.71 17.51-12.18 62.052-43.11 133.616-92.79 13.894-9.703 25.502-21.41 34.827-35.116 9.332-13.7 13.993-28.07 13.993-43.105 0-12.564-4.523-23.32-13.565-32.264-9.04-8.947-19.748-13.418-32.116-13.418H45.68c-14.656 0-25.934 4.948-33.833 14.844C3.95 79.562 0 91.934 0 106.78c0 11.99 5.236 24.984 15.703 38.973 10.466 13.99 21.604 24.983 33.403 32.976z"/><path d="M483.072 209.275c-62.424 42.25-109.824 75.087-142.177 98.5-10.85 7.992-19.65 14.23-26.41 18.7-6.758 4.473-15.747 9.04-26.98 13.702-11.227 4.668-21.69 6.995-31.4 6.995h-.578c-9.707 0-20.177-2.327-31.405-6.995-11.228-4.66-20.223-9.23-26.98-13.702-6.755-4.47-15.56-10.708-26.407-18.7-25.697-18.84-72.995-51.68-141.896-98.5C17.986 202.047 8.374 193.762 0 184.437v226.685c0 12.57 4.47 23.32 13.418 32.265 8.945 8.95 19.7 13.422 32.264 13.422h420.266c12.56 0 23.315-4.474 32.26-13.423 8.95-8.95 13.42-19.694 13.42-32.265V184.437c-8.187 9.132-17.7 17.417-28.556 24.838z"/></symbol><symbol id="facebook-logo" viewBox="0 0 470.513 470.513"><path d="M271.52 154.17v-40.54c0-6.087.28-10.8.85-14.13.567-3.336 1.857-6.616 3.86-9.854 1.998-3.236 5.235-5.47 9.705-6.708 4.476-1.24 10.424-1.858 17.85-1.858h40.54V0h-64.81c-37.5 0-64.433 8.897-80.803 26.69-16.368 17.8-24.55 44.015-24.55 78.66v48.82h-48.543v81.085h48.538V470.51h97.362V235.257h64.805l8.566-81.086h-73.37z"/></symbol><symbol id="fire-extinguisher" viewBox="0 0 465.951 465.951"><path d="M430.543 29.408c-1.526-1.333-3.43-2-5.712-2-.76 0-1.426.097-1.99.29L294.933 55.104c-2.098.378-3.812 1.425-5.146 3.14-1.332 1.71-1.992 3.612-1.992 5.708H201.57c2.666-5.902 4-11.993 4-18.273 0-12.563-4.473-23.317-13.418-32.262C183.202 4.47 172.452 0 159.888 0c-12.563 0-23.32 4.47-32.264 13.418-8.95 8.945-13.418 19.7-13.418 32.262 0 8.375 2.378 16.562 7.14 24.556-10.66 3.424-20.986 8.42-30.98 14.987-9.99 6.564-18.08 12.943-24.27 19.126a183.712 183.712 0 0 0-17.27 19.984c-5.327 7.14-8.897 12.23-10.706 15.275-1.805 3.045-3.19 5.52-4.14 7.422-2.283 4.568-2.617 9.23-.997 13.988 1.615 4.76 4.61 8.282 8.992 10.566 2.474 1.33 5.234 1.997 8.28 1.997 7.61 0 13.04-3.335 16.274-9.993.764-1.52 2.095-3.855 3.998-6.995s5.758-8.232 11.56-15.276c5.804-7.044 12.09-13.364 18.844-18.987 6.76-5.61 15.465-10.656 26.125-15.127 10.66-4.47 21.604-6.71 32.836-6.71h9.133v31.693c-18.842 5.707-34.21 16.602-46.11 32.686-11.896 16.086-17.843 34.216-17.843 54.39v228.407c0 4.948 1.81 9.236 5.424 12.847 3.617 3.614 7.902 5.43 12.847 5.43h146.184c4.94 0 9.227-1.815 12.847-5.43 3.61-3.61 5.42-7.898 5.42-12.847V219.266c0-21.888-6.897-41.206-20.696-57.958-13.803-16.746-31.266-27.312-52.39-31.69v-29.124h73.086c0 2.096.664 4 1.995 5.713 1.34 1.713 3.05 2.76 5.145 3.14l127.907 27.406c.57.193 1.235.288 1.995.288 2.28 0 4.188-.665 5.71-1.996 2.287-1.715 3.43-4.095 3.43-7.14v-91.36c-.005-3.043-1.144-5.423-3.434-7.136zM172.738 58.53c-3.617 3.618-7.895 5.427-12.847 5.427-4.95 0-9.236-1.81-12.85-5.426-3.617-3.614-5.424-7.897-5.424-12.844 0-4.95 1.807-9.235 5.424-12.85 3.617-3.615 7.902-5.427 12.85-5.427 4.95 0 9.23 1.81 12.848 5.425 3.614 3.616 5.424 7.902 5.424 12.85 0 4.947-1.81 9.23-5.424 12.846z"/></symbol><symbol id="home" viewBox="0 0 460.298 460.297"><path d="M230.15 120.94L65.985 256.273c0 .19-.048.472-.144.855-.094.38-.144.655-.144.85v137.042c0 4.948 1.81 9.236 5.426 12.847 3.616 3.612 7.898 5.43 12.847 5.43H193.6V303.664H266.7v109.64h109.63c4.947 0 9.235-1.814 12.846-5.435 3.617-3.608 5.432-7.9 5.432-12.848v-137.04c0-.76-.104-1.335-.288-1.708L230.148 120.94z"/><path d="M457.122 225.438L394.6 173.476V56.99c0-2.664-.856-4.854-2.574-6.568-1.704-1.712-3.894-2.568-6.563-2.568h-54.816c-2.666 0-4.855.856-6.57 2.568-1.71 1.714-2.566 3.905-2.566 6.567v55.672l-69.66-58.245c-6.085-4.95-13.32-7.423-21.695-7.423s-15.608 2.474-21.698 7.423L3.172 225.437c-1.903 1.52-2.946 3.567-3.14 6.137-.193 2.568.472 4.81 1.997 6.713l17.7 21.128c1.525 1.712 3.52 2.76 5.996 3.142 2.285.192 4.57-.476 6.855-1.998L230.15 95.816l197.57 164.74c1.525 1.33 3.52 1.992 5.995 1.992h.858c2.47-.377 4.463-1.43 5.996-3.14l17.702-21.124c1.522-1.906 2.19-4.145 1.99-6.716-.194-2.563-1.24-4.61-3.14-6.132z"/></symbol><symbol id="linkedin-letters" viewBox="0 0 438.536 438.535"><path d="M5.424 145.895H99.64v282.932H5.424zM408.842 171.74c-19.79-21.605-45.967-32.41-78.512-32.41-11.99 0-22.89 1.476-32.695 4.428-9.8 2.95-18.08 7.09-24.838 12.42-6.755 5.33-12.135 10.277-16.13 14.843-3.797 4.338-7.51 9.39-11.135 15.105v-40.232h-93.935l.288 13.706c.193 9.138.288 37.306.288 84.507 0 47.205-.19 108.777-.572 184.722h93.932V270.94c0-9.705 1.04-17.412 3.14-23.127 4-9.712 10.036-17.843 18.13-24.407 8.093-6.572 18.13-9.855 30.125-9.855 16.364 0 28.407 5.662 36.117 16.987 7.707 11.324 11.56 26.98 11.56 46.966V428.82h93.932V266.664c-.007-41.688-9.897-73.328-29.694-94.925zM53.103 9.708c-15.796 0-28.595 4.62-38.4 13.848C4.9 32.786 0 44.44 0 58.53c0 13.89 4.758 25.504 14.275 34.828 9.514 9.325 22.078 13.99 37.685 13.99h.57c15.99 0 28.888-4.66 38.69-13.99 9.8-9.324 14.605-20.934 14.416-34.83-.19-14.086-5.047-25.74-14.56-34.972C81.56 14.323 68.9 9.708 53.102 9.708z"/></symbol><symbol id="long-arrow-pointing-to-the-right" viewBox="0 0 493.356 493.356"><path d="M490.498 239.278l-109.632-99.93c-3.046-2.473-6.376-2.95-9.993-1.426-3.613 1.525-5.427 4.283-5.427 8.282v63.954H9.136c-2.666 0-4.856.855-6.567 2.568C.86 214.438 0 216.628 0 219.292v54.816c0 2.663.855 4.853 2.568 6.563 1.715 1.713 3.905 2.568 6.567 2.568h356.313v63.953c0 3.813 1.817 6.57 5.428 8.28 3.62 1.528 6.95.95 9.996-1.71l109.632-101.076c1.903-1.902 2.852-4.182 2.852-6.85 0-2.467-.955-4.653-2.858-6.556z"/></symbol><symbol id="rocket" viewBox="0 0 423 448"><path d="M360 112q0-10-7-17t-17-7-17 7-7 17 7 17 17 7 17-7 7-17zm56-72q0 62.25-18.875 107.625T333.75 237.75q-20.25 20-48.75 44l-5 94.75q-.5 4-4 6.5l-96 56q-1.75 1-4 1-3 0-5.75-2.25l-16-16q-3.25-3.5-2-8l21.25-69-70.25-70.25-69 21.25q-.75.25-2.25.25-3.5 0-5.75-2.25l-16-16Q6 273 9 268l56-96q2.5-3.5 6.5-4l94.75-5q24-28.5 44-48.75 47-46.75 89.5-64.5T407.5 32q3.5 0 6 2.375T416 40z"/></symbol><symbol id="shield" viewBox="0 0 438.543 438.543"><path d="M396.58 5.424C392.96 1.807 388.675 0 383.727 0H54.824c-4.952 0-9.235 1.807-12.852 5.424-3.615 3.615-5.424 7.898-5.424 12.847v219.27c0 16.37 3.186 32.595 9.563 48.68 6.375 16.084 14.275 30.36 23.698 42.828 9.423 12.47 20.65 24.605 33.69 36.405 13.04 11.806 25.077 21.6 36.115 29.41a452.304 452.304 0 0 0 34.545 22.12c11.99 6.943 20.51 11.663 25.553 14.134 5.044 2.478 9.09 4.38 12.133 5.708 2.286 1.143 4.758 1.718 7.426 1.718 2.67 0 5.14-.575 7.427-1.718 3.042-1.328 7.087-3.23 12.128-5.708 5.04-2.47 13.565-7.19 25.557-14.134a453.188 453.188 0 0 0 34.54-22.12c11.043-7.81 23.08-17.605 36.12-29.41 13.032-11.8 24.264-23.936 33.686-36.405 9.42-12.467 17.32-26.744 23.705-42.828 6.38-16.085 9.562-32.31 9.562-48.68V18.27c0-4.95-1.808-9.23-5.415-12.846zM347.178 237.54c0 33.5-22.367 67.758-67.095 102.78-17.892 14.082-38.164 27.124-60.813 39.115V54.813h127.908V237.54z"/></symbol><symbol id="telephone-symbol-button" viewBox="0 0 438.536 438.536"><path d="M414.41 24.123C398.333 8.043 378.963 0 356.315 0H82.228C59.58 0 40.21 8.042 24.126 24.123 8.046 40.207.003 59.576.003 82.225V356.31c0 22.646 8.042 42.017 24.123 58.1 16.084 16.085 35.454 24.127 58.102 24.127h274.084c22.648 0 42.018-8.042 58.095-24.126 16.084-16.083 24.126-35.453 24.126-58.1V82.224c0-22.65-8.043-42.02-24.123-58.102zm-55.25 308.75c-3.998 8.755-12.99 16.372-26.978 22.847-13.99 6.475-26.413 9.712-37.265 9.712-3.046 0-6.283-.235-9.708-.71-3.427-.48-6.325-.953-8.704-1.43-2.378-.475-5.523-1.33-9.42-2.57-3.906-1.233-6.716-2.188-8.423-2.853-1.718-.665-4.856-1.855-9.42-3.567-4.57-1.718-7.428-2.765-8.563-3.138-31.215-11.427-61.72-32.028-91.507-61.814-29.786-29.792-50.39-60.29-61.812-91.5-.377-1.144-1.424-4-3.14-8.566a952.564 952.564 0 0 0-3.57-9.42c-.662-1.712-1.615-4.52-2.853-8.42-1.237-3.902-2.09-7.04-2.568-9.422-.48-2.376-.95-5.277-1.428-8.704-.476-3.427-.713-6.667-.713-9.71 0-10.85 3.236-23.27 9.71-37.26 6.47-13.987 14.083-22.98 22.84-26.978 10.088-4.19 19.7-6.283 28.837-6.283 2.09 0 3.616.192 4.565.572.953.384 2.524 2.093 4.714 5.14 2.19 3.045 4.568 6.898 7.137 11.562 2.57 4.665 5.092 9.186 7.566 13.562a601.267 601.267 0 0 1 7.138 12.99c2.284 4.28 3.71 6.996 4.28 8.134.572.957 1.81 2.762 3.712 5.43 1.902 2.662 3.333 5.038 4.283 7.134.95 2.094 1.427 4.093 1.427 5.996 0 2.86-1.953 6.33-5.854 10.42-3.903 4.093-8.186 7.854-12.85 11.28s-8.945 7.093-12.847 10.995c-3.9 3.9-5.853 7.087-5.853 9.562 0 1.333.333 2.902 1 4.71.666 1.812 1.285 3.287 1.856 4.427.57 1.14 1.477 2.76 2.712 4.856 1.237 2.096 2.048 3.427 2.426 4 10.468 18.842 22.51 35.07 36.115 48.68 13.612 13.613 29.836 25.648 48.682 36.117.567.384 1.902 1.19 4.004 2.43 2.092 1.232 3.714 2.136 4.854 2.707 1.143.57 2.614 1.19 4.425 1.852 1.81.664 3.38 1 4.718 1 3.036 0 7.225-3.14 12.56-9.42a976.68 976.68 0 0 1 16.276-18.704c5.516-6.18 9.985-9.274 13.418-9.274 1.902 0 3.897.473 6 1.424 2.094.95 4.468 2.382 7.13 4.284 2.67 1.91 4.477 3.142 5.43 3.72l15.124 8.272c10.09 5.332 18.51 10.04 25.27 14.134s10.424 6.9 10.996 8.42c.38.95.564 2.477.564 4.57-.007 9.13-2.102 18.742-6.297 28.804z"/></symbol><symbol id="twitter-black-shape" viewBox="0 0 449.956 449.956"><path d="M449.956 85.657c-17.702 7.614-35.408 12.37-53.102 14.28 19.985-11.992 33.503-28.932 40.546-50.82-18.28 10.847-37.787 18.268-58.532 22.267-18.274-19.414-40.73-29.125-67.383-29.125-25.502 0-47.246 8.99-65.24 26.98-17.984 17.986-26.977 39.73-26.977 65.234 0 6.85.76 13.896 2.284 21.128-37.688-1.903-73.042-11.372-106.068-28.407C82.46 110.158 54.434 87.46 31.404 59.1c-8.376 14.273-12.565 29.788-12.565 46.537 0 15.798 3.71 30.456 11.137 43.97 7.422 13.512 17.417 24.455 29.98 32.83-14.85-.57-28.743-4.474-41.684-11.707v1.142c0 22.27 6.995 41.824 20.983 58.674C53.246 247.394 70.9 258 92.216 262.38a95.543 95.543 0 0 1-24.268 3.137c-5.33 0-11.136-.475-17.416-1.42 5.9 18.46 16.75 33.633 32.546 45.535 15.8 11.896 33.69 18.028 53.677 18.418-33.498 26.262-71.66 39.393-114.486 39.393-8.187 0-15.608-.373-22.27-1.14C42.825 393.9 90.03 407.7 141.61 407.7c32.74 0 63.48-5.18 92.21-15.557 28.747-10.368 53.298-24.266 73.666-41.685 20.362-17.415 37.925-37.448 52.674-60.097 14.75-22.65 25.738-46.298 32.977-70.946 7.23-24.653 10.848-49.344 10.848-74.092 0-5.33-.096-9.325-.287-11.99 18.087-13.128 33.504-29.024 46.258-47.673z"/></symbol><symbol id="user-shape" viewBox="0 0 438.529 438.529"><path d="M219.265 219.267c30.27 0 56.108-10.71 77.518-32.12 21.412-21.412 32.12-47.25 32.12-77.516 0-30.26-10.708-56.1-32.12-77.515C275.366 10.705 249.528 0 219.265 0S163.16 10.705 141.75 32.115c-21.414 21.416-32.12 47.253-32.12 77.516 0 30.268 10.706 56.105 32.12 77.516 21.416 21.41 47.25 32.12 77.515 32.12z"/><path d="M419.258 335.036c-.668-9.61-2.002-19.985-3.997-31.12-1.998-11.137-4.523-21.458-7.57-30.98-3.045-9.513-7.138-18.793-12.277-27.835-5.137-9.04-11.037-16.747-17.703-23.126-6.666-6.377-14.8-11.465-24.406-15.27-9.617-3.806-20.23-5.712-31.84-5.712-1.71 0-5.71 2.046-11.99 6.14a2716.072 2716.072 0 0 1-21.267 13.707c-7.898 5.036-18.182 9.608-30.834 13.694-12.658 4.093-25.36 6.14-38.118 6.14-12.752 0-25.456-2.047-38.112-6.14-12.655-4.086-22.936-8.658-30.835-13.695a2784.143 2784.143 0 0 1-21.267-13.71c-6.282-4.092-10.277-6.138-11.99-6.138-11.61 0-22.222 1.906-31.833 5.71-9.613 3.807-17.75 8.9-24.412 15.272-6.66 6.38-12.562 14.086-17.7 23.127-5.136 9.043-9.228 18.327-12.274 27.837-3.044 9.52-5.567 19.842-7.565 30.978-2 11.136-3.332 21.505-4 31.12a427.742 427.742 0 0 0-.997 29.555c0 22.836 6.95 40.875 20.842 54.104 13.896 13.224 32.36 19.835 55.39 19.835h249.533c23.028 0 41.49-6.612 55.388-19.836 13.902-13.23 20.846-31.265 20.846-54.104-.002-10.088-.334-19.938-1.008-29.554z"/></symbol></svg>