<?xml version="1.0" encoding="utf-8"?>
<!-- Generated by IcoMoon.io -->
<!DOCTYPE svg PUBLIC "-//W3C//DTD SVG 1.1//EN" "http://www.w3.org/Graphics/SVG/1.1/DTD/svg11.dtd">
<svg version="1.1" xmlns="http://www.w3.org/2000/svg" xmlns:xlink="http://www.w3.org/1999/xlink" width="423" height="448" viewBox="0 0 423 448">
<g id="icomoon-ignore">
</g>
<path d="M360 112q0-10-7-17t-17-7-17 7-7 17 7 17 17 7 17-7 7-17zM416 40q0 62.25-18.875 107.625t-63.375 90.125q-20.25 20-48.75 44l-5 94.75q-0.5 4-4 6.5l-96 56q-1.75 1-4 1-3 0-5.75-2.25l-16-16q-3.25-3.5-2-8l21.25-69-70.25-70.25-69 21.25q-0.75 0.25-2.25 0.25-3.5 0-5.75-2.25l-16-16q-4.25-4.75-1.25-9.75l56-96q2.5-3.5 6.5-4l94.75-5q24-28.5 44-48.75 47-46.75 89.5-64.5t107.75-17.75q3.5 0 6 2.375t2.5 5.625z"></path>
</svg>
