<svg xmlns="http://www.w3.org/2000/svg" viewbox="0 0 292.5 292.5"><style>.a{stroke-width:5;}</style><circle cx="146.3" cy="146.3" r="141.8" style="fill:none;stroke-width:9"/><g class="logo-letters"><path d="M39.4 135.3c1.9 0 3.4 0.4 4.4 1.1 1 0.7 1.5 1.6 1.5 2.5 0 0.6-0.2 1.1-0.7 1.5 -0.4 0.4-1 0.6-1.6 0.6 -0.4 0-0.8-0.1-1.1-0.3 -0.3-0.2-0.7-0.6-1.3-1.4 -1-1.4-2.1-2.1-3.1-2.1 -0.9 0-1.6 0.3-2.3 1 -0.7 0.7-1 1.5-1 2.5 0 0.9 0.2 1.7 0.6 2.5 0.4 0.8 1.5 2.1 3.2 4 2.4 2.5 3.5 4.9 3.5 7.1 0 2.3-1 4.2-2.9 5.9 -1.9 1.7-4.4 2.5-7.4 2.5 -2.5 0-4.4-0.5-5.7-1.5 -1.2-1-1.9-2.3-1.9-3.8 0-0.7 0.2-1.4 0.7-1.9s1-0.7 1.7-0.7c0.6 0 1.1 0.2 1.5 0.6s0.6 0.9 0.6 1.4c0 0.2 0 0.5 0 0.8 0 0.3 0 0.5 0 0.7 0 0.7 0.3 1.3 0.9 1.8 0.6 0.5 1.4 0.7 2.4 0.7 1.1 0 2.2-0.2 3-0.6 0.9-0.4 1.5-1 2-1.8 0.5-0.8 0.7-1.6 0.7-2.4 0-0.8-0.2-1.5-0.7-2.3 -0.5-0.8-1.5-2-3.1-3.8 -2.2-2.5-3.3-4.8-3.3-7.1 0-2.1 0.8-3.9 2.5-5.5C34.6 136.1 36.8 135.3 39.4 135.3z"/><path d="M62.1 135.3c2.1 0 3.8 0.8 5.2 2.5 1.4 1.7 2.1 4 2.1 6.9 0 4.7-1.7 9-5 12.7 -3.3 3.8-6.8 5.6-10.5 5.6 -2.3 0-4.1-0.7-5.5-2.2s-2.1-3.5-2.1-6.1c0-4.5 1.3-8.6 3.8-12.4C53.3 137.6 57.3 135.3 62.1 135.3zM59.4 137.7c-1.8 0-3.6 1.3-5.3 3.9 -1.7 2.6-2.5 6.2-2.5 10.7 0 2.8 0.5 5 1.6 6.6 0.8 1.2 1.8 1.8 3.1 1.8 1.8 0 3.4-1.1 4.9-3.3 1.9-2.9 2.8-6.4 2.8-10.7 0-3.2-0.4-5.5-1.3-6.8C61.8 138.4 60.7 137.7 59.4 137.7z"/><path d="M94 136.1h4.6l-3 11.2c-1.8 6.5-2.7 10.2-2.7 11.1 0 0.4 0.1 0.7 0.3 0.9 0.2 0.2 0.4 0.3 0.6 0.3 0.4 0 0.8-0.2 1.3-0.5 0.7-0.5 2-1.7 4-3.7l1.1 1.2c-4.3 4.5-7.4 6.7-9.5 6.7 -0.7 0-1.3-0.3-1.7-0.8 -0.5-0.5-0.7-1.3-0.7-2.2 0-1.1 0.2-2.6 0.7-4.4 -1.9 2.2-4.2 4.1-7 5.7 -1.9 1.1-3.5 1.6-4.8 1.6 -0.7 0-1.3-0.2-1.8-0.7 -0.4-0.5-0.6-1.3-0.6-2.3 0-0.8 0.1-1.7 0.3-2.7 0.3-1.3 1-4 2.1-8.1 1.4-5.1 2.1-8.2 2.1-9.2 0-0.6-0.2-0.9-0.6-0.9 -0.4 0-0.9 0.2-1.6 0.6 -0.7 0.4-1.8 1.3-3.4 2.9l-1.4-1.1c2.9-2.6 5-4.2 6.5-5s2.7-1.2 3.6-1.2c0.5 0 0.9 0.2 1.2 0.6 0.3 0.4 0.5 1 0.5 1.7 0 1.5-0.8 5.1-2.3 10.8 -1.4 5.2-2 8.1-2 8.9 0 0.4 0.1 0.8 0.4 1.2 0.3 0.3 0.6 0.5 0.9 0.5 1.2 0 2.9-1 5.1-3 2.2-2 3.6-4.2 4.3-6.7L94 136.1z"/><path d="M115.9 154.5l1.1 1.2c-1.7 1.9-3.6 3.6-5.9 5.1 -2.3 1.5-4.1 2.3-5.6 2.3 -0.7 0-1.2-0.3-1.6-0.8 -0.4-0.5-0.6-1.2-0.6-2.1 0-1.7 0.7-5.2 2-10.6l3.4-14c1.3-5.1 2.3-8.5 3.2-10.2 1.3-2.6 3.2-4.6 5.6-6.1 2.4-1.4 5-2.2 7.6-2.2 0.9 0 1.6 0.2 2.2 0.7 0.5 0.4 0.8 1 0.8 1.6 0 0.7-0.3 1.3-0.8 1.7 -0.5 0.4-1.3 0.7-2.2 0.7 -0.6 0-1.5-0.1-2.7-0.3 -1-0.2-2-0.3-2.8-0.3 -0.9 0-1.5 0.2-2 0.5 -0.6 0.5-1.2 1.6-1.7 3.2 -0.5 1.6-1.3 4.9-2.4 9.7l-3.2 13.4c-1.6 6.7-2.4 10.2-2.4 10.5 0 0.7 0.2 1 0.7 1 0.5 0 1.2-0.3 2-0.8C112.3 157.6 114.1 156.2 115.9 154.5z"/><path d="M119.1 142.6l-1-1.3c2.1-2.1 4.1-3.7 6-4.7s3.4-1.5 4.5-1.5c0.4 0 0.8 0.1 1 0.3 0.2 0.2 0.3 0.5 0.3 0.8 0 0.4-0.2 1.2-0.5 2.5 -0.5 1.8-0.8 3.2-1 4.3 5.1-5.2 9-7.8 11.7-7.8 0.7 0 1.2 0.2 1.6 0.6 0.4 0.4 0.5 1 0.5 1.8 0 0.9-0.3 2.4-1 4.6 2.4-2.5 4.5-4.3 6.3-5.4 1.8-1.1 3.2-1.6 4.2-1.6 0.9 0 1.6 0.3 2.1 0.8 0.5 0.5 0.7 1.3 0.7 2.4 0 0.6-0.1 1.4-0.3 2.3 -0.2 0.9-1 3.5-2.3 8 -1.7 5.5-2.5 8.8-2.5 9.9 0 0.7 0.3 1.1 0.9 1.1 0.4 0 0.8-0.1 1.2-0.4 1.3-0.9 2.5-2 3.9-3.3l1.1 1.2c-0.4 0.4-1.3 1.1-2.5 2.2 -1.7 1.5-2.9 2.5-3.5 2.9 -1.2 0.7-2.3 1.1-3.1 1.1 -0.6 0-1.2-0.3-1.7-0.9 -0.5-0.6-0.7-1.5-0.7-2.6 0-1 0.1-2.2 0.4-3.6 0.3-1.4 1.2-4.5 2.6-9.3 1.1-3.6 1.6-5.8 1.6-6.6 0-0.7-0.3-1.1-1-1.1 -0.5 0-1.2 0.3-2.1 0.8 -1.8 1.1-3.4 2.5-4.6 4.1 -0.9 1.1-1.6 2.9-2.2 5.3 -1.4 5.3-2.5 9.6-3.2 12.9h-4.5l4.8-19.5c0.3-1.4 0.5-2.2 0.5-2.4 0-0.3-0.1-0.6-0.3-0.8 -0.2-0.2-0.4-0.3-0.7-0.3 -0.6 0-1.5 0.4-2.7 1.3 -2.1 1.5-3.6 3-4.5 4.4 -0.9 1.4-1.7 3.6-2.4 6.5l-2.5 10.8h-4.6l3.6-15.2c1.1-4.4 1.6-6.8 1.6-7.2 0-0.5-0.2-0.7-0.6-0.7C123.4 139 121.7 140.2 119.1 142.6z"/><path d="M175.6 154.2l1.1 1.4c-5.2 5-9.7 7.4-13.4 7.4 -1.5 0-2.7-0.5-3.5-1.5s-1.2-2.7-1.2-4.9c0-4.6 1.4-9.1 4.2-13.6 3.1-5.1 6.8-7.7 11.2-7.7 1.5 0 2.7 0.4 3.5 1.1 0.8 0.8 1.2 1.8 1.2 3.1 0 1.4-0.5 2.7-1.4 4.1 -1 1.3-2.7 2.7-5.1 4.2 -1.2 0.7-3.9 2-7.9 3.8 -0.2 1.2-0.3 2.2-0.3 3.3 0 1.5 0.2 2.6 0.7 3.2 0.5 0.6 1.2 0.9 2.1 0.9 0.9 0 1.8-0.2 2.9-0.7C170.8 157.5 172.9 156.2 175.6 154.2zM164.4 149.5c3.4-1.5 6-3.2 7.7-5 1.2-1.2 1.8-2.5 1.8-3.7 0-0.9-0.2-1.6-0.7-2.2 -0.5-0.5-1.1-0.8-1.9-0.8 -0.8 0-1.6 0.3-2.3 0.9 -1 0.8-1.8 2-2.5 3.6C165.5 144.7 164.8 147.1 164.4 149.5z"/><path d="M194.4 154.5l1.1 1.2c-1.7 1.9-3.6 3.6-5.9 5.1 -2.3 1.5-4.1 2.3-5.6 2.3 -0.7 0-1.2-0.3-1.6-0.8 -0.4-0.5-0.6-1.2-0.6-2.1 0-1.7 0.7-5.2 2-10.6l3.4-14c1.3-5.1 2.3-8.5 3.2-10.2 1.3-2.6 3.2-4.6 5.6-6.1 2.4-1.4 5-2.2 7.6-2.2 0.9 0 1.6 0.2 2.2 0.7 0.5 0.4 0.8 1 0.8 1.6 0 0.7-0.3 1.3-0.8 1.7 -0.5 0.4-1.3 0.7-2.2 0.7 -0.6 0-1.5-0.1-2.7-0.3 -1-0.2-2-0.3-2.8-0.3 -0.9 0-1.5 0.2-2 0.5 -0.6 0.5-1.2 1.6-1.7 3.2s-1.3 4.9-2.4 9.7l-3.2 13.4c-1.6 6.7-2.4 10.2-2.4 10.5 0 0.7 0.2 1 0.7 1 0.5 0 1.2-0.3 2-0.8C190.8 157.6 192.6 156.2 194.4 154.5z"/><path d="M212.6 135.3c2.1 0 3.8 0.8 5.2 2.5 1.4 1.7 2.1 4 2.1 6.9 0 4.7-1.7 9-5 12.7 -3.3 3.8-6.8 5.6-10.5 5.6 -2.3 0-4.1-0.7-5.5-2.2 -1.4-1.5-2.1-3.5-2.1-6.1 0-4.5 1.3-8.6 3.8-12.4C203.8 137.6 207.8 135.3 212.6 135.3zM209.9 137.7c-1.8 0-3.6 1.3-5.3 3.9 -1.7 2.6-2.5 6.2-2.5 10.7 0 2.8 0.5 5 1.6 6.6 0.8 1.2 1.8 1.8 3.1 1.8 1.8 0 3.4-1.1 4.9-3.3 1.9-2.9 2.8-6.4 2.8-10.7 0-3.2-0.4-5.5-1.3-6.8C212.3 138.4 211.2 137.7 209.9 137.7z"/><path d="M223.9 142.8l-1.1-1.1c2.7-2.6 4.9-4.3 6.5-5.2 1.6-0.9 3-1.3 4.2-1.3 0.4 0 0.8 0.1 1.1 0.3 0.3 0.2 0.4 0.4 0.4 0.7 0 0.2-0.1 0.5-0.2 1l-1.4 6.4c2.2-2.4 4.9-4.7 8.2-6.7 1.7-1.1 3.2-1.6 4.3-1.6 0.8 0 1.5 0.3 1.9 0.8 0.5 0.5 0.7 1.3 0.7 2.3 0 0.7-0.1 1.4-0.3 2.2 -0.3 1.4-1.2 4.4-2.7 9 -1.4 4.3-2 7.2-2 8.7 0 0.4 0.1 0.8 0.2 1s0.3 0.3 0.5 0.3c0.6 0 1.6-0.6 2.9-1.8 0.9-0.9 1.9-1.6 2.8-2.4l0.8 1.2c-2 2.2-4 3.9-6.1 5.2 -1.3 0.8-2.5 1.3-3.3 1.3 -0.8 0-1.4-0.3-1.9-0.9 -0.4-0.6-0.7-1.5-0.7-2.9 0-1.9 1.2-6.6 3.5-14.2 0.7-2.7 1.1-4.3 1.1-4.7 0-0.7-0.4-1-1.2-1 -0.9 0-2 0.4-3.3 1.3 -2 1.3-3.7 2.9-5 4.7 -0.9 1.2-1.6 3-2.1 5.5l-2.6 11.2h-4.8c0.9-3.2 1.7-6.3 2.3-9.2l2.8-12.2c0.1-0.5 0.2-0.8 0.2-1.1 0-0.6-0.2-0.9-0.6-0.9 -0.3 0-0.8 0.2-1.5 0.7C226.3 140.5 225.1 141.5 223.9 142.8z"/><path d="M269.8 154.2l1.1 1.4c-5.2 5-9.7 7.4-13.4 7.4 -1.5 0-2.7-0.5-3.5-1.5s-1.2-2.7-1.2-4.9c0-4.6 1.4-9.1 4.2-13.6 3.1-5.1 6.8-7.7 11.2-7.7 1.5 0 2.7 0.4 3.5 1.1 0.8 0.8 1.2 1.8 1.2 3.1 0 1.4-0.5 2.7-1.4 4.1 -1 1.3-2.7 2.7-5.1 4.2 -1.2 0.7-3.9 2-7.9 3.8 -0.2 1.2-0.3 2.2-0.3 3.3 0 1.5 0.2 2.6 0.7 3.2s1.2 0.9 2.1 0.9c0.9 0 1.8-0.2 2.9-0.7C265 157.5 267.1 156.2 269.8 154.2zM258.6 149.5c3.4-1.5 6-3.2 7.7-5 1.2-1.2 1.8-2.5 1.8-3.7 0-0.9-0.2-1.6-0.7-2.2s-1.1-0.8-1.9-0.8c-0.8 0-1.6 0.3-2.3 0.9 -1 0.8-1.8 2-2.5 3.6C259.7 144.7 259 147.1 258.6 149.5z"/></g><line x1="271.7" y1="185.1" x2="18.7" y2="185.1" class="a"/><line x1="19.7" y1="105.1" x2="271.7" y2="105.1" class="a"/></svg>
